<svg xmlns="http://www.w3.org/2000/svg" viewBox="0 0 24 24"><path d="M16 19.5V17c0-.1 0-.3-.1-.4s-.2-.1-.4-.1H14v-8c0-.1 0-.3-.1-.4s-.3-.1-.4-.1h-5c-.1 0-.3 0-.4.1s-.1.3-.1.4V11c0 .1 0 .3.1.4s.2.1.4.1H10v5H8.5c-.1 0-.3 0-.4.1s-.1.3-.1.4v2.5c0 .1 0 .3.1.4s.3.1.4.1h7c.1 0 .3 0 .4-.1s.1-.3.1-.4zm-2-14V3c0-.1 0-.3-.1-.4s-.2-.1-.4-.1h-3c-.1 0-.3 0-.4.1s-.1.3-.1.4v2.5c0 .1 0 .3.1.4s.3.1.4.1h3c.1 0 .3 0 .4-.1s.1-.3.1-.4zM24 12c0 2.2-.5 4.2-1.6 6s-2.5 3.3-4.4 4.4-3.8 1.6-6 1.6-4.2-.5-6-1.6-3.3-2.5-4.4-4.4S0 14.2 0 12s.5-4.2 1.6-6S4.1 2.7 6 1.6 9.8 0 12 0s4.2.5 6 1.6 3.3 2.5 4.4 4.4S24 9.8 24 12z"/></svg>