<svg xmlns="http://www.w3.org/2000/svg" width="169.3" height="64.087" viewBox="0 0 169.3 64.087"><path d="M37.12 16.682h13.758L31.441 62.653H19.305L0 16.682h14.453l11.209 31.207L37.12 16.682zM64.473.108v11.093h-12.19C50.879-1.883 64.473.108 64.473.108zm-12.19 16.574h12.191v45.971H52.283V16.682zm19.942.423V.869h11.891v16.236h7.464v8.562h-7.464v24.291c0 1.884.24 3.059.717 3.522.477.464 1.941.694 4.386.694.367 0 .754-.007 1.161-.02.407-.013.807-.033 1.201-.063v8.982l-5.693.213c-5.68.197-9.559-.787-11.64-2.952-1.347-1.378-2.021-3.502-2.021-6.371V17.105zm50.85 45.548v-5.4a24.842 24.842 0 0 1-5.77 4.6c-2.602 1.488-5.543 2.235-8.822 2.235-4.186 0-7.645-1.187-10.373-3.566-2.728-2.375-4.093-5.74-4.093-10.099 0-5.65 2.195-9.743 6.584-12.271 2.408-1.378 5.95-2.365 10.623-2.955l4.123-.504c2.235-.284 3.836-.634 4.799-1.054 1.728-.734 2.592-1.871 2.592-3.419 0-1.881-.664-3.182-1.988-3.899-1.324-.717-3.272-1.077-5.837-1.077-2.878 0-4.916.704-6.11 2.108-.857 1.041-1.428 2.448-1.711 4.219H95.495c.253-4.019 1.381-7.324 3.389-9.913 3.188-4.046 8.669-6.07 16.433-6.07 5.053 0 9.542.997 13.468 2.992 3.926 1.998 5.887 5.767 5.887 11.303v32.796l-11.597-.026zm-.38-22.354c-.77.48-1.548.867-2.328 1.161-.787.297-1.861.57-3.228.824l-2.735.504c-2.565.45-4.409 1.001-5.527 1.648-1.895 1.094-2.838 2.795-2.838 5.103 0 2.051.577 3.535 1.734 4.449 1.154.914 2.562 1.368 4.216 1.368 2.628 0 5.046-.757 7.261-2.275 2.211-1.521 3.359-4.289 3.445-8.308v-4.474zm29.178 22.354h-12.017V.489h12.017v62.164zm4.619-12.808H169.3v12.808h-12.808z"/></svg>