<svg xmlns="http://www.w3.org/2000/svg" xmlns:xlink="http://www.w3.org/1999/xlink" viewBox="0 0 80.87 30.17"><defs><linearGradient id="a" x1="13.43" y1="15.78" x2="44.1" y2="41.11" gradientUnits="userSpaceOnUse"><stop offset="0" stop-color="#ff9c00"/><stop offset="1" stop-color="#ed5e5e"/></linearGradient><linearGradient id="b" x1="26.02" y1=".55" x2="56.69" y2="25.88" xlink:href="#a"/><linearGradient id="c" x1="18.21" y1="10" x2="48.87" y2="35.33" xlink:href="#a"/><linearGradient id="d" x1="24.18" y1="2.77" x2="54.85" y2="28.1" xlink:href="#a"/><linearGradient id="e" x1="28.87" y1="-2.9" x2="59.53" y2="22.43" xlink:href="#a"/><linearGradient id="f" x1="36.93" y1="-12.66" x2="67.59" y2="12.67" xlink:href="#a"/><linearGradient id="g" x1="34.29" y1="-9.46" x2="64.95" y2="15.87" xlink:href="#a"/></defs><title>vital-logo</title><g data-name="Layer 1"><path fill="url(#a)" d="M12.25 23.08L6.9 7.55H0l9.21 21.93H15l9.28-21.93h-6.57l-5.46 15.53z"/><path d="M25.61 4.93h5.82V.28s-6.49-1.59-5.82 4.65z" fill="url(#b)"/><path fill="url(#c)" d="M25.61 7.55h5.82v21.94h-5.82z"/><path d="M40.37 0H34.7v25.34a4.2 4.2 0 0 0 1 3q1.49 1.55 5.55 1.41l2.72-.1V25.4h-1.12a3.77 3.77 0 0 1-2.09-.33 2.61 2.61 0 0 1-.34-1.68V12.87h3.56V7.5h-3.61z" fill="url(#d)"/><path d="M61.95 8.45A14 14 0 0 0 55.52 7Q50 7 47.68 9.92a8.39 8.39 0 0 0-1.62 4.73h5.54a4.14 4.14 0 0 1 .82-2 3.65 3.65 0 0 1 2.92-1 6 6 0 0 1 2.79.51 1.93 1.93 0 0 1 .93 1.84 1.73 1.73 0 0 1-1.24 1.63 9.18 9.18 0 0 1-2.29.5l-2 .24a14 14 0 0 0-5.07 1.41 6.24 6.24 0 0 0-3.14 5.86 6 6 0 0 0 2 4.82 7.26 7.26 0 0 0 4.95 1.7 8.33 8.33 0 0 0 4.21-1.07 11.84 11.84 0 0 0 2.75-2.19v2.58h5.53V13.85q0-3.97-2.81-5.4zM59 21q-.06 2.88-1.64 4a6 6 0 0 1-3.43 1 3.14 3.14 0 0 1-2-.65 2.54 2.54 0 0 1-.83-2.12 2.62 2.62 0 0 1 1.35-2.44 8.58 8.58 0 0 1 2.63-.79l1.31-.24a9.39 9.39 0 0 0 1.54-.39 6.29 6.29 0 0 0 1.07-.55z" fill="url(#e)"/><path fill="url(#f)" d="M67.23 0h5.73v29.48h-5.73z"/><path fill="url(#g)" d="M75.56 24.17h5.31v5.31h-5.31z"/></g></svg>