<?xml version="1.0" encoding="utf-8"?>
<!-- Generator: Adobe Illustrator 20.1.0, SVG Export Plug-In . SVG Version: 6.00 Build 0)  -->
<svg version="1.1" id="Layer_1" xmlns="http://www.w3.org/2000/svg" xmlns:xlink="http://www.w3.org/1999/xlink" x="0px" y="0px"
	 viewBox="0 0 24 24" style="enable-background:new 0 0 24 24;" xml:space="preserve">
<path d="M16,19.5V17c0-0.1,0-0.3-0.1-0.4s-0.2-0.1-0.4-0.1H14v-8c0-0.1,0-0.3-0.1-0.4S13.6,8,13.5,8h-5C8.4,8,8.2,8,8.1,8.1
	S8,8.4,8,8.5V11c0,0.1,0,0.3,0.1,0.4s0.2,0.1,0.4,0.1H10v5H8.5c-0.1,0-0.3,0-0.4,0.1S8,16.9,8,17v2.5c0,0.1,0,0.3,0.1,0.4
	S8.4,20,8.5,20h7c0.1,0,0.3,0,0.4-0.1S16,19.6,16,19.5z M14,5.5V3c0-0.1,0-0.3-0.1-0.4s-0.2-0.1-0.4-0.1h-3c-0.1,0-0.3,0-0.4,0.1
	S10,2.9,10,3v2.5c0,0.1,0,0.3,0.1,0.4S10.4,6,10.5,6h3c0.1,0,0.3,0,0.4-0.1S14,5.6,14,5.5z M24,12c0,2.2-0.5,4.2-1.6,6
	s-2.5,3.3-4.4,4.4S14.2,24,12,24s-4.2-0.5-6-1.6S2.7,19.9,1.6,18S0,14.2,0,12s0.5-4.2,1.6-6S4.1,2.7,6,1.6S9.8,0,12,0s4.2,0.5,6,1.6
	s3.3,2.5,4.4,4.4S24,9.8,24,12z"/>
</svg>
