<svg xmlns="http://www.w3.org/2000/svg" xmlns:xlink="http://www.w3.org/1999/xlink" viewBox="0 0 80.87 30.17"><defs><linearGradient id="New_Gradient_Swatch_1" x1="13.43" y1="15.78" x2="44.1" y2="41.11" gradientUnits="userSpaceOnUse"><stop offset="0" stop-color="#ff9c00"/><stop offset="1" stop-color="#ed5e5e"/></linearGradient><linearGradient id="New_Gradient_Swatch_1-2" x1="26.02" y1="0.55" x2="56.69" y2="25.88" xlink:href="#New_Gradient_Swatch_1"/><linearGradient id="New_Gradient_Swatch_1-3" x1="18.21" y1="10" x2="48.87" y2="35.33" xlink:href="#New_Gradient_Swatch_1"/><linearGradient id="New_Gradient_Swatch_1-4" x1="24.18" y1="2.77" x2="54.85" y2="28.1" xlink:href="#New_Gradient_Swatch_1"/><linearGradient id="New_Gradient_Swatch_1-5" x1="28.87" y1="-2.9" x2="59.53" y2="22.43" xlink:href="#New_Gradient_Swatch_1"/><linearGradient id="New_Gradient_Swatch_1-6" x1="36.93" y1="-12.66" x2="67.59" y2="12.67" xlink:href="#New_Gradient_Swatch_1"/><linearGradient id="New_Gradient_Swatch_1-7" x1="34.29" y1="-9.46" x2="64.95" y2="15.87" xlink:href="#New_Gradient_Swatch_1"/></defs><title>vital-logo</title><g id="Layer_2" data-name="Layer 2"><g id="Layer_1-2" data-name="Layer 1"><polygon points="12.25 23.08 6.9 7.55 0 7.55 9.21 29.48 15 29.48 24.28 7.55 17.71 7.55 12.25 23.08" fill="url(#New_Gradient_Swatch_1)"/><path d="M25.61,4.93h5.82V.28S24.94-1.31,25.61,4.93Z" fill="url(#New_Gradient_Swatch_1-2)"/><rect x="25.61" y="7.55" width="5.82" height="21.94" fill="url(#New_Gradient_Swatch_1-3)"/><path d="M40.37,0H34.7V25.34a4.2,4.2,0,0,0,1,3q1.49,1.55,5.55,1.41l2.72-.1V25.4l-.57,0h-.55a3.77,3.77,0,0,1-2.09-.33,2.61,2.61,0,0,1-.34-1.68V12.87h3.56V7.5H40.37Z" fill="url(#New_Gradient_Swatch_1-4)"/><path d="M61.95,8.45A14,14,0,0,0,55.52,7Q50,7,47.68,9.92a8.39,8.39,0,0,0-1.62,4.73H51.6a4.14,4.14,0,0,1,.82-2,3.65,3.65,0,0,1,2.92-1,6,6,0,0,1,2.79.51A1.93,1.93,0,0,1,59.06,14a1.73,1.73,0,0,1-1.24,1.63,9.18,9.18,0,0,1-2.29.5l-2,.24a14,14,0,0,0-5.07,1.41,6.24,6.24,0,0,0-3.14,5.86,6,6,0,0,0,2,4.82,7.26,7.26,0,0,0,4.95,1.7,8.33,8.33,0,0,0,4.21-1.07,11.84,11.84,0,0,0,2.75-2.19v2.58h5.53V13.85Q64.76,9.88,61.95,8.45ZM59,21q-.06,2.88-1.64,4A6,6,0,0,1,53.93,26a3.14,3.14,0,0,1-2-.65,2.54,2.54,0,0,1-.83-2.12,2.62,2.62,0,0,1,1.35-2.44A8.58,8.58,0,0,1,55.08,20l1.31-.24a9.39,9.39,0,0,0,1.54-.39A6.29,6.29,0,0,0,59,18.82Z" fill="url(#New_Gradient_Swatch_1-5)"/><rect x="67.23" width="5.73" height="29.48" fill="url(#New_Gradient_Swatch_1-6)"/><rect x="75.56" y="24.17" width="5.31" height="5.31" fill="url(#New_Gradient_Swatch_1-7)"/></g></g></svg>